<?xml version="1.0" standalone="no"?><!DOCTYPE svg PUBLIC "-//W3C//DTD SVG 1.1//EN" "http://www.w3.org/Graphics/SVG/1.1/DTD/svg11.dtd"><svg t="1602839913012" class="icon" viewBox="0 0 1024 1024" version="1.1" xmlns="http://www.w3.org/2000/svg" p-id="6749" xmlns:xlink="http://www.w3.org/1999/xlink" width="200" height="200"><defs><style type="text/css"></style></defs><path d="M519.68 517.973333m-470.186667 0a470.186667 470.186667 0 1 0 940.373334 0 470.186667 470.186667 0 1 0-940.373334 0Z" fill="#DFE7EF" p-id="6750"></path><path d="M925.013333 755.2c0-0.853333-0.853333-2.56-2.56-5.12-5.973333-9.386667-15.36-13.653333-24.746666-17.92l-30.72-12.8c-18.773333-7.68-38.4-15.36-57.173334-23.04-17.92-6.826667-35.84-13.653333-54.613333-20.48-25.6-9.386667-50.346667-19.626667-75.946667-29.013333-1.706667-0.853333-4.266667-1.706667-5.12-2.56l-43.52-40.96c-1.706667 0.853333 0 2.56 0 3.413333 7.68 28.16 12.8 57.173333 11.093334 86.186667 1.706667 11.093333 0 22.186667-1.706667 33.28-1.706667 10.24-3.413333 19.626667-5.12 29.866666l-10.24 51.2c-4.266667 21.333333-8.533333 41.813333-12.8 63.146667-3.413333 16.213333-7.68 32.426667-11.093333 47.786667-4.266667 18.773333-9.386667 36.693333-13.653334 55.466666-0.853333 3.413333-1.706667 5.973333-2.56 9.386667 145.92-19.626667 269.653333-105.813333 340.48-227.84z" fill="#333333" p-id="6751"></path><path d="M624.64 732.16c-5.12 11.946667-9.386667 23.893333-14.506667 35.84-0.853333 2.56-1.706667 2.56-3.413333 0.853333-7.68-8.533333-16.213333-17.066667-23.893333-25.6-5.973333-5.973333-11.093333-12.8-17.92-17.92-4.266667-3.413333-6.826667-7.68-10.24-11.093333-1.706667-2.56-4.266667-3.413333-7.68-4.266667-5.973333 11.093333-11.093333 21.333333-15.36 33.28-2.56 5.973333 0 11.946667 1.706666 17.92 3.413333 19.626667 7.68 39.253333 10.24 58.88 5.973333 46.08 3.413333 92.16 3.413334 138.24 0 8.533333 0 17.92-0.853334 26.453334 0 0.853333 0 2.56-0.853333 3.413333 13.653333-0.853333 26.453333-1.706667 39.253333-4.266667 0-3.413333 1.706667-5.973333 2.56-9.386666 5.12-18.773333 9.386667-36.693333 13.653334-55.466667 3.413333-16.213333 7.68-31.573333 11.093333-47.786667 4.266667-20.48 8.533333-41.813333 12.8-63.146666l10.24-51.2c1.706667-10.24 4.266667-19.626667 5.12-29.866667 1.706667-11.093333 2.56-22.186667 1.706667-33.28-6.826667 12.8-11.946667 25.6-17.066667 38.4z" fill="#D4D4D4" p-id="6752"></path><path d="M517.12 988.16s0-0.853333 0.853333-1.706667c0.853333-1.706667 0.853333-2.56 0.853334-4.266666V750.08c0-1.706667 0-3.413333-0.853334-5.12 0 0-0.853333-0.853333 0-1.706667 3.413333-7.68 0.853333-15.36 1.706667-23.04v-17.92c0-4.266667-0.853333-9.386667-1.706667-13.653333h-5.12c-6.826667 5.973333-13.653333 11.093333-20.48 16.213333-1.706667 0.853333-2.56 2.56-2.56 4.266667 3.413333 7.68 7.68 15.36 11.093334 23.893333 2.56 5.973333 5.973333 11.946667 4.266666 18.773334-3.413333 16.213333-6.826667 33.28-9.386666 50.346666-2.56 19.626667-5.973333 39.253333-5.973334 58.88-0.853333 38.4 0 75.946667 0 114.346667 0 4.266667 0.853333 7.68 0 11.946667 8.533333 0.853333 17.92 0.853333 27.306667 0.853333z" fill="#CC3B38" p-id="6753"></path><path d="M451.413333 983.893333c-2.56-5.973333-11.093333-43.52-13.653333-52.053333 0 0-2.56-10.24-4.266667-15.36-5.12-24.746667-11.093333-49.493333-16.213333-74.24-4.266667-21.333333-8.533333-41.813333-11.946667-63.146667-4.266667-19.626667-7.68-39.253333-10.24-59.733333-0.853333-7.68-0.853333-16.213333-0.853333-23.893333v-24.746667c0-1.706667 1.706667-13.653333 1.706667-14.506667 1.706667-17.066667 5.12-33.28 11.093333-52.906666 0 0-0.853333 0-0.853333-0.853334-0.853333 0-1.706667 0.853333-1.706667 0.853334-12.8 12.8-25.6 24.746667-38.4 36.693333-2.56 2.56-5.12 5.12-8.533333 5.973333-11.946667 4.266667-23.893333 8.533333-34.986667 12.8-18.773333 6.826667-37.546667 14.506667-56.32 21.333334-18.773333 7.68-37.546667 14.506667-57.173333 22.186666-17.066667 6.826667-33.28 12.8-49.493334 19.626667-7.68 3.413333-16.213333 6.826667-23.893333 10.24-8.533333 4.266667-16.213333 10.24-23.04 17.92 69.12 124.586667 192.853333 212.48 338.773333 233.813333z" fill="#383838" p-id="6754"></path><path d="M532.48 761.173333c-0.853333-5.973333-4.266667-11.946667-1.706667-17.92 4.266667-11.093333 10.24-22.186667 15.36-33.28 0.853333-1.706667-0.853333-2.56-2.56-4.266666-6.826667-5.973333-14.506667-10.24-20.48-17.066667-2.56-0.853333-5.12-0.853333-6.826666 0 0.853333 4.266667 1.706667 9.386667 1.706666 13.653333v17.92c-0.853333 7.68 1.706667 15.36-1.706666 23.04v1.706667c1.706667 1.706667 0.853333 3.413333 0.853333 5.12v232.106667c0 1.706667 0 3.413333-0.853333 4.266666-0.853333 0.853333-0.853333 0.853333-0.853334 1.706667h1.706667c8.533333 0 17.92 0 26.453333-0.853333 0-0.853333 0.853333-2.56 0.853334-3.413334 0-8.533333 0.853333-17.92 0.853333-26.453333 0-46.08 2.56-92.16-3.413333-138.24-1.706667-18.773333-5.12-38.4-9.386667-58.026667zM531.626667 989.866667c0.853333 0 0.853333-0.853333 0 0 0.853333 0 0.853333 0 0 0z" fill="#B72A2A" p-id="6755"></path><path d="M680.106667 375.466667c0 6.826667 0 13.653333-0.853334 20.48-0.853333 10.24-2.56 20.48-3.413333 29.866666-0.853333 11.946667-2.56 23.893333-3.413333 35.84-3.413333 18.773333-10.24 36.693333-17.92 53.76-6.826667 14.506667-14.506667 28.16-24.746667 40.106667-5.12 3.413333-10.24 7.68-14.506667 11.946667-5.12 5.12-10.24 9.386667-15.36 12.8-6.826667 5.12-13.653333 10.24-22.186666 12.8-5.12 1.706667-10.24 5.12-15.36 5.973333-11.093333 2.56-22.186667 5.12-33.28 5.12-4.266667 0-8.533333 0-11.946667 1.706667v-0.853334c0.853333-2.56 0.853333-4.266667 0.853333-6.826666V389.973333c0-4.266667-0.853333-41.813333 0-44.373333V341.333333 230.4c0-3.413333 0.853333-31.573333 4.266667-32.426667 6.826667 0 46.933333-17.92 93.013333 5.973334s63.146667 101.546667 65.706667 116.906666c0.853333 3.413333-0.853333 49.493333-0.853333 54.613334z" fill="#FDAC7A" p-id="6756"></path><path d="M522.24 223.573333c-3.413333 0.853333-4.266667 3.413333-4.266667 6.826667v367.786667c0 2.56 0 5.12-0.853333 6.826666-5.973333 0-12.8-1.706667-18.773333-1.706666-2.56 0-21.333333-2.56-27.306667-5.12-6.826667-2.56-13.653333-5.12-20.48-8.533334-11.093333-5.973333-20.48-13.653333-29.866667-21.333333-2.56-2.56-6.826667-4.266667-9.386666-7.68-0.853333-1.706667-5.973333-5.12-5.973334-5.12s-12.8-16.213333-17.066666-25.6c-4.266667-7.68-8.533333-15.36-11.093334-23.04-3.413333-9.386667-7.68-18.773333-10.24-29.013333-0.853333-4.266667-2.56-7.68-2.56-11.946667 0-2.56-3.413333-1.706667-3.413333-4.266667 0.853333 0 1.706667 0 1.706667-1.706666 0-13.653333-2.56-26.453333-3.413334-40.106667 0-3.413333 0-7.68-0.853333-11.093333-2.56-12.8-2.56-26.453333-3.413333-40.106667 0-3.413333-1.706667-10.24-1.706667-12.8-0.853333-7.68 0-16.213333 0-23.893333 0.853333-8.533333 2.56-17.066667 5.973333-25.6 5.12-11.093333 45.226667-85.333333 60.586667-93.013334 14.506667-8.533333 90.453333-20.48 102.4 10.24z" fill="#FECCA7" p-id="6757"></path><path d="M546.986667 709.973333c0.853333-1.706667-0.853333-2.56-2.56-4.266666-6.826667-5.973333-14.506667-10.24-20.48-17.066667 0.853333-0.853333 2.56-1.706667 3.413333-2.56 11.946667-2.56 22.186667-9.386667 32.426667-17.066667 13.653333-9.386667 26.453333-20.48 38.4-32.426666 6.826667-6.826667 12.8-13.653333 18.773333-20.48 4.266667-5.12 8.533333-9.386667 12.8-13.653334 0.853333 0 0.853333 0.853333 0.853333 1.706667-1.706667 0.853333 0 2.56 0 3.413333 7.68 28.16 12.8 57.173333 11.093334 86.186667-6.826667 11.946667-11.946667 25.6-17.066667 38.4-5.12 11.946667-9.386667 23.893333-14.506667 35.84-0.853333 2.56-1.706667 2.56-3.413333 0.853333-7.68-8.533333-16.213333-17.066667-23.893333-25.6-5.973333-5.973333-11.093333-12.8-17.92-17.92-4.266667-3.413333-6.826667-7.68-10.24-11.093333-2.56-2.56-5.12-3.413333-7.68-4.266667z" fill="#B2B2B2" p-id="6758"></path><path d="M529.92 688.64s15.36 12.8 23.893333 18.773333 47.786667 51.2 50.346667 52.906667 4.266667 4.266667 4.266667 4.266667 15.36-38.4 21.333333-51.2c5.12-11.093333 10.24-19.626667 11.946667-22.186667v-0.853333c0.853333-28.16-3.413333-55.466667-11.093334-82.773334 0-0.853333-1.706667-2.56 0-3.413333 0-0.853333 0-0.853333-0.853333-1.706667-4.266667 4.266667-8.533333 9.386667-12.8 13.653334-5.973333 7.68-12.8 13.653333-18.773333 20.48-11.946667 11.946667-24.746667 23.04-38.4 32.426666-10.24 6.826667-20.48 13.653333-32.426667 17.066667-0.853333 0-0.853333 0-1.706667 0.853333l4.266667 1.706667z" fill="#C8C8C8" p-id="6759"></path><path d="M673.28 461.653333c0.853333-11.946667 1.706667-23.893333 3.413333-35.84 0.853333-10.24 2.56-20.48 3.413334-29.866666 0.853333-6.826667 0.853333-13.653333 0.853333-20.48 0-5.12 1.706667-9.386667 2.56-14.506667 8.533333 0 12.8 5.973333 16.213333 11.946667 6.826667 11.093333 6.826667 23.04 5.973334 34.986666-2.56 17.066667-8.533333 32.426667-19.626667 45.226667-4.266667 4.266667-7.68 8.533333-12.8 8.533333z" fill="#FD9469" p-id="6760"></path><path d="M517.12 610.133333v-3.413333-0.853333c-9.386667-0.853333-34.133333-3.413333-46.08-6.826667-6.826667-2.56-13.653333-5.12-20.48-8.533333-11.093333-5.973333-20.48-13.653333-29.866667-21.333334-2.56-2.56-5.12-5.12-9.386666-8.533333-1.706667-1.706667-2.56-1.706667-5.973334-4.266667v47.786667s0.853333 0 0.853334 0.853333h0.853333s0-5.973333 0 0c8.533333 10.24 17.066667 19.626667 26.453333 29.866667 15.36 16.213333 32.426667 30.72 51.2 42.666667 6.826667 4.266667 13.653333 7.68 22.186667 10.24 2.56 0 3.413333 0.853333 5.12 2.56h5.12v-0.853334-79.36z" fill="#FFB586" p-id="6761"></path><path d="M359.253333 420.693333c0-3.413333 0-7.68-0.853333-11.093333-2.56-12.8-2.56-26.453333-3.413333-40.106667 0-3.413333-1.706667-5.973333-5.12-7.68-0.853333 0-8.533333 4.266667-10.24 5.973334-7.68 8.533333-10.24 18.773333-10.24 29.866666 0 11.946667 2.56 23.04 7.68 34.133334 4.266667 10.24 10.24 18.773333 18.773333 25.6 0.853333 0.853333 4.266667 3.413333 5.12 3.413333 0.853333 0 1.706667 0 1.706667-1.706667-0.853333-11.946667-2.56-25.6-3.413334-38.4z" fill="#FEB48D" p-id="6762"></path><path d="M506.88 686.933333c-7.68-2.56-15.36-5.973333-22.186667-10.24-18.773333-11.946667-35.84-26.453333-51.2-42.666666-9.386667-9.386667-17.92-19.626667-26.453333-29.866667h-0.853333c-5.12 17.92-11.093333 55.466667-11.093334 55.466667s-0.853333 5.973333-0.853333 7.68c-0.853333 5.12-0.853333 11.946667 0 14.506666 0.853333 7.68 2.56 12.8 5.973333 18.773334 2.56 5.973333 4.266667 11.946667 7.68 17.066666 4.266667 7.68 5.973333 16.213333 10.24 24.746667 3.413333 6.826667 5.12 14.506667 9.386667 21.333333 5.973333-6.826667 12.8-12.8 18.773333-19.626666 8.533333-8.533333 17.92-17.066667 25.6-25.6 10.24-11.093333 22.186667-20.48 34.986667-29.013334 0.853333-1.706667 0-2.56 0-2.56z" fill="#E6E6E6" p-id="6763"></path><path d="M488.96 709.973333c-2.56 0-5.12 1.706667-6.826667 4.266667-12.8 11.946667-24.746667 24.746667-36.693333 37.546667-5.12 5.973333-11.093333 11.093333-17.066667 17.066666-2.56 2.56-2.56 0.853333-4.266666-0.853333-6.826667-15.36-11.946667-31.573333-19.626667-46.933333-3.413333-7.68-6.826667-15.36-9.386667-22.186667-0.853333-0.853333-0.853333-2.56-2.56-2.56 0 7.68-0.853333 16.213333 0.853334 23.893333 3.413333 19.626667 6.826667 39.253333 10.24 59.733334 4.266667 21.333333 7.68 41.813333 11.946666 63.146666 5.12 23.893333 30.72 132.266667 34.133334 141.653334 12.8 1.706667 25.6 3.413333 38.4 4.266666 0.853333-4.266667 0-7.68 0-11.946666-0.853333-38.4-0.853333-75.946667 0-114.346667 0-19.626667 3.413333-39.253333 5.973333-58.88 2.56-17.066667 5.973333-33.28 9.386667-50.346667 1.706667-7.68-1.706667-12.8-4.266667-18.773333-2.56-9.386667-6.826667-17.066667-10.24-24.746667z" fill="#F2F2F2" p-id="6764"></path><path d="M394.24 667.306667c1.706667 4.266667 0.853333 8.533333 0.853333 11.946666-0.853333 7.68 1.706667 14.506667 5.12 20.48 2.56 5.973333 4.266667 11.946667 7.68 17.066667 4.266667 7.68 6.826667 16.213333 11.093334 24.746667 3.413333 6.826667 5.973333 13.653333 10.24 20.48 5.973333-6.826667 11.946667-11.946667 17.92-18.773334 8.533333-8.533333 17.92-17.066667 25.6-25.6 10.24-11.093333 22.186667-20.48 34.986666-29.013333 0.853333-0.853333 0-1.706667 0-2.56 2.56 0 3.413333 0.853333 5.12 2.56-6.826667 5.973333-13.653333 11.093333-20.48 16.213333-1.706667 0.853333-2.56 2.56-2.56 4.266667-2.56 0-5.12 1.706667-6.826666 4.266667-12.8 11.946667-24.746667 24.746667-36.693334 37.546666-5.12 5.973333-11.093333 11.093333-17.066666 17.066667-2.56 2.56-2.56 0.853333-4.266667-0.853333-7.68-15.36-12.8-30.72-19.626667-46.08-3.413333-7.68-5.973333-16.213333-9.386666-23.893334-0.853333-0.853333-0.853333-2.56-2.56-2.56v-24.746666s0.853333-3.413333 0.853333-2.56z" fill="#C6C4C4" p-id="6765"></path><path d="M548.693333 224.426667c0.853333-0.853333 1.706667-0.853333 2.56 0h-2.56z" fill="#322214" p-id="6766"></path><path d="M616.106667 567.466667c-5.12 5.12-10.24 9.386667-15.36 12.8-6.826667 5.12-13.653333 10.24-22.186667 12.8-5.12 1.706667-10.24 5.12-15.36 5.973333-11.093333 2.56-22.186667 5.12-33.28 5.12-4.266667 0-8.533333 0-11.946667 1.706667v81.92c2.56-0.853333 5.12-0.853333 6.826667 0 0.853333-0.853333 2.56-1.706667 3.413333-2.56 11.946667-2.56 22.186667-9.386667 32.426667-17.066667 13.653333-9.386667 26.453333-20.48 38.4-32.426667 6.826667-6.826667 12.8-13.653333 18.773333-20.48 4.266667-5.12 8.533333-9.386667 12.8-13.653333V554.666667c-5.973333 4.266667-10.24 8.533333-14.506666 12.8z" fill="#FD9469" p-id="6767"></path><path d="M675.84 426.666667l-1.706667-35.84s2.56-59.733333-11.093333-90.453334c-9.386667-20.48-15.36-42.666667-29.013333-61.44-5.973333-8.533333-13.653333-14.506667-23.04-19.626666-11.946667-5.973333-20.48-5.973333-31.573334 4.266666-41.813333 38.4-91.306667 37.546667-133.973333-0.853333-8.533333-7.68-14.506667-8.533333-23.04-1.706667-16.213333 11.946667-29.866667 28.16-38.4 45.226667-17.066667 35.84-24.746667 68.266667-24.746667 113.493333 0.853333 16.213333 0 40.96 0 40.96s-8.533333-34.986667-11.946666-52.906666c-2.56-8.533333-2.56-11.946667-2.56-19.626667-1.706667-27.306667-7.68-55.466667-4.266667-82.773333 3.413333-1.706667 3.413333-5.12 4.266667-8.533334 7.68-23.04 21.333333-42.666667 42.666666-56.32 7.68-5.12 16.213333-2.56 23.893334-10.24 49.493333-47.786667 107.52-56.32 171.52-31.573333 46.933333 17.92 82.773333 46.933333 94.72 98.986667 1.706667 9.386667 0.853333 19.626667 9.386666 27.306666 4.266667 27.306667 0 107.52-1.706666 111.786667-4.266667 10.24-9.386667 29.866667-9.386667 29.866667z" fill="#56423B" p-id="6768"></path><path d="M686.933333 285.866667c-8.533333-6.826667-7.68-17.92-9.386666-27.306667-11.946667-52.053333-47.786667-81.066667-94.72-98.986667-64-24.746667-121.173333-15.36-171.52 31.573334-7.68 6.826667-17.066667 5.12-23.893334 10.24-21.333333 13.653333-34.133333 32.426667-42.666666 56.32-0.853333 3.413333-0.853333 6.826667-4.266667 8.533333-5.973333-42.666667 20.48-87.04 60.586667-100.693333 4.266667-1.706667 7.68-5.12 11.093333-7.68C466.773333 108.373333 537.6 102.4 604.16 136.533333c61.44 32.426667 78.506667 87.04 82.773333 149.333334z" fill="#6D5950" p-id="6769"></path><path d="M519.68 490.666667c-3.413333 5.973333-5.12 12.8-12.8 11.946666-21.333333-0.853333-41.813333 0-64 0 36.693333-37.546667 123.733333-39.253333 159.573333-1.706666-25.6 4.266667-51.2 5.973333-65.706666 1.706666-9.386667-2.56-15.36-6.826667-17.066667-11.946666z" fill="#6F4F3B" p-id="6770"></path><path d="M522.24 373.76h-7.68c-5.973333 0-7.68 1.706667-9.386667 6.826667-3.413333 9.386667-6.826667 18.773333-11.946666 26.453333-6.826667 9.386667-13.653333 18.773333-25.6 22.186667-10.24 2.56-20.48 4.266667-30.72 5.12-7.68 0.853333-15.36 0.853333-22.186667 0.853333-14.506667 0-32.426667-10.24-35.84-29.013333-2.56-11.946667-5.12-23.04-5.973333-35.84 0-1.706667 0-3.413333-2.56-3.413334-3.413333-0.853333-5.973333-2.56-6.826667-6.826666 0-5.12 0-10.24 5.12-12.8 5.973333-3.413333 12.8-5.12 18.773333-5.12 25.6-2.56 51.2-2.56 75.946667 0 13.653333 1.706667 26.453333 3.413333 39.253333 7.68 5.12 1.706667 11.093333 0.853333 17.066667 0.853333h7.68c6.826667 0.853333 12.8-2.56 18.773333-4.266667 13.653333-2.56 27.306667-5.12 40.96-5.973333 20.48-0.853333 40.106667-0.853333 60.586667 0.853333 6.826667 0.853333 12.8 1.706667 19.626667 5.12 5.12 2.56 4.266667 7.68 5.12 12.8 0 4.266667-2.56 5.973333-5.973334 6.826667-1.706667 0-2.56 1.706667-2.56 3.413333-0.853333 10.24-2.56 21.333333-5.12 31.573334-1.706667 6.826667-3.413333 13.653333-7.68 18.773333-6.826667 8.533333-16.213333 13.653333-27.306666 14.506667-17.066667 0.853333-33.28-1.706667-49.493334-4.266667-17.066667-2.56-26.453333-13.653333-34.133333-26.453333-4.266667-6.826667-6.826667-13.653333-9.386667-21.333334-4.266667-3.413333-5.12-7.68-8.533333-8.533333z m-93.866667-26.453333c-11.093333-0.853333-22.186667 0.853333-32.426666 3.413333-5.973333 1.706667-11.946667 4.266667-12.8 11.946667-1.706667 13.653333-1.706667 26.453333 3.413333 39.253333 2.56 5.973333 5.12 11.093333 8.533333 15.36 5.12 6.826667 11.946667 9.386667 19.626667 10.24 13.653333 1.706667 26.453333-0.853333 40.106667-3.413333 9.386667-1.706667 17.92-5.12 24.746666-12.8 11.946667-13.653333 15.36-29.866667 16.213334-46.933334 0-1.706667-0.853333-2.56-1.706667-3.413333-3.413333-2.56-6.826667-4.266667-10.24-5.973333-18.773333-5.12-37.546667-7.68-55.466667-7.68z m178.346667 0c-17.92 0-33.28 1.706667-47.786667 5.12-6.826667 1.706667-12.8 3.413333-18.773333 7.68-2.56 1.706667-4.266667 3.413333-4.266667 6.826666 0 9.386667 1.706667 18.773333 5.12 28.16 5.12 12.8 12.8 23.04 25.6 27.306667 16.213333 5.12 33.28 7.68 50.346667 5.973333 6.826667-0.853333 13.653333-3.413333 17.92-9.386666 12.8-17.066667 16.213333-36.693333 11.946667-57.173334-0.853333-4.266667-2.56-6.826667-5.973334-8.533333-2.56-1.706667-5.973333-3.413333-9.386666-3.413333-7.68-1.706667-17.92-3.413333-24.746667-2.56z" fill="#664F46" p-id="6771"></path></svg>