<?xml version="1.0" standalone="no"?><!DOCTYPE svg PUBLIC "-//W3C//DTD SVG 1.1//EN" "http://www.w3.org/Graphics/SVG/1.1/DTD/svg11.dtd"><svg t="1602840844602" class="icon" viewBox="0 0 1024 1024" version="1.1" xmlns="http://www.w3.org/2000/svg" p-id="74453" xmlns:xlink="http://www.w3.org/1999/xlink" width="200" height="200"><defs><style type="text/css"></style></defs><path d="M0 510.978044c0 282.05988 228.918164 510.978044 510.978044 510.978044s510.978044-228.918164 510.978044-510.978044S793.037924 0 510.978044 0 0 228.918164 0 510.978044z" fill="#ECEDEF" p-id="74454"></path><path d="M671.936128 423.600798c-3.576846-12.774451-1.532934-27.592814-9.197605-31.680638-15.840319-8.175649-35.768463-16.862275-60.295409-24.526946-72.558882-21.461078-88.91018-39.856287-88.91018-39.856288s2.55489 17.373253 12.774451 29.636727c-35.768463-2.55489-95.552894-8.686627-151.760479-58.251497-27.081836 26.570858-39.856287 72.558882-40.878243 120.07984-0.510978 0-11.752495-2.55489-18.39521-0.510978-6.131737 1.532934-9.708583 3.576846-11.752495 4.598802-1.532934 1.532934-6.131737 7.153693-5.620758 17.884232 0 15.840319 9.708583 52.630739 21.972055 70.003992 7.153693 10.730539 20.439122 15.329341 32.702595 10.730539 0 0 30.147705 104.239521 108.327346 140.007984v39.345309c11.752495 10.730539 29.636727 17.373253 50.586826 17.373254 18.906188 0 35.768463-5.620758 47.00998-14.818364V666.315369c83.800399-30.658683 108.327345-144.095808 108.327345-144.095808 8.175649-0.510978 16.351297-4.598802 21.461078-10.730539 5.620758-7.153693 19.417166-48.542914 19.928144-84.311377-0.510978 0.510978-13.796407-20.9501-36.279441-3.576847z" fill="#F4E1E8" p-id="74455"></path><path d="M510.978044 715.369261c-172.199601 0-319.361277 56.207585-380.678643 136.431138 93.508982 104.239521 229.429142 170.155689 380.678643 170.155689s287.169661-65.916168 380.678643-170.155689c-61.317365-80.223553-208.479042-136.431138-380.678643-136.431138z" fill="#9055A2" p-id="74456"></path><path d="M585.580838 692.37525c-3.576846-3.576846-8.686627-3.576846-12.774451-0.510979l-7.66467 6.642715c-11.241517 12.774451-31.169661 20.9501-54.163673 20.9501s-42.922156-8.175649-54.163673-20.9501l-7.66467-6.642715c-3.576846-3.065868-9.197605-3.065868-12.774451 0.510979l-31.169661 31.16966 29.125748 91.46507s53.652695-45.477046 57.740519-79.201597h37.301397c4.598802 33.213573 52.630739 79.201597 52.630739 79.201597l34.235529-91.46507-30.658683-31.16966z" fill="#7A3793" p-id="74457"></path><path d="M551.345309 549.812375c0-0.510978-0.510978-1.021956-1.021956-1.532934-0.510978-0.510978-1.021956 0-1.532934 0-4.598802 3.065868-9.197605 2.043912-11.752495-0.510978-3.065868-3.065868-6.642715-10.219561-15.329341-9.708583-5.10978 0.510978-7.664671 2.55489-9.197605 5.109781-1.021956-2.55489-3.576846-5.10978-9.197605-5.109781-8.686627-0.510978-12.774451 6.642715-15.329341 9.708583-2.55489 2.55489-7.153693 4.087824-11.752495 0.510978-0.510978-0.510978-1.021956-0.510978-1.532934 0-0.510978 0.510978-1.021956 1.021956-1.021956 1.532934 0 3.065868 1.021956 8.175649 6.131736 11.241517 8.175649 5.10978 20.9501 6.131737 29.125749-1.021956 0 0 2.55489-2.55489 4.087824-5.620758 1.532934 3.065868 4.087824 5.620758 4.087824 5.620758 8.175649 7.153693 20.439122 6.131737 29.125749 1.021956 4.598802-3.576846 5.620758-8.175649 5.10978-11.241517z" fill="#2E294E" p-id="74458"></path><path d="M666.315369 485.94012s-24.526946 113.437126-108.327345 144.095808c0 0-1.021956 0.510978-2.55489 1.021956-5.620758 2.043912-12.263473 1.021956-17.373254-2.043912s-12.774451-5.10978-21.461078-5.10978c-9.197605 0-17.373253 2.043912-22.483034 5.620758s-11.752495 4.598802-17.884231 2.55489c-9.708583-3.065868-15.840319-6.642715-15.840319-6.642714-78.179641-35.768463-113.437126-140.007984-113.437126-140.007984-0.510978 15.840319 2.043912 24.015968 5.10978 36.279441 0 0 30.147705 104.239521 108.327346 140.007984 0 0 22.483034 12.263473 50.586826 12.263473s47.00998-8.175649 47.00998-8.175649c83.800399-30.658683 108.327345-144.095808 108.327345-144.095808 2.043912-13.285429 2.043912-21.461078 0-35.768463z" fill="#2E294E" p-id="74459"></path><path d="M441.996008 493.093812c-7.664671 3.576846-17.884232 5.10978-28.103792 5.109781-22.483034 0-47.520958-8.175649-56.207585-24.015968-13.285429-22.994012-16.351297-68.982036 0-78.690619 7.153693-4.087824 31.169661-7.153693 55.696607-5.620758 26.05988 1.021956 52.630739 6.642715 62.339321 19.417165 15.840319 20.9501-9.708583 72.558882-33.724551 83.800399zM654.051896 474.187625c-8.686627 15.840319-33.724551 24.015968-56.207585 24.015968-10.730539 0-20.9501-1.532934-28.103792-5.109781-24.015968-11.241517-49.56487-62.850299-33.724551-83.800399 9.708583-12.774451 36.279441-18.39521 62.339321-19.417165 25.037924-1.021956 49.053892 1.532934 55.696607 5.620758 15.840319 9.708583 12.774451 55.696607 0 78.690619z" fill="#D0C3CE" p-id="74460"></path><path d="M516.087824 171.177645c-128.255489-2.043912-159.936128 49.053892-161.469062 88.399201-18.906188 4.087824-52.630739 12.774451-54.163672 119.568863 0 8.175649 0 37.301397 1.021956 44.966067 2.043912-1.021956 6.131737-3.576846 13.796407-5.620758 6.642715-2.043912 17.884232 0.510978 18.39521 0.510978 1.021956-47.520958 13.796407-93.508982 40.878243-120.07984 56.207585 49.56487 115.992016 55.185629 151.760479 58.251497-10.219561-12.263473-12.774451-29.636727-12.774451-29.636727s16.351297 18.39521 88.91018 39.856288c24.526946 7.153693 44.966068 15.840319 60.295409 24.526946 7.664671 4.087824 5.620758 18.906188 9.197605 31.680638 22.483034-17.373253 35.768463 3.576846 35.768463 3.576847s0.510978-10.219561-1.532934-20.9501h2.043912c5.10978 0 10.219561 1.532934 14.818363 4.087824 1.021956-7.664671 1.532934-15.329341 1.532934-23.50499 2.043912-117.013972-91.46507-213.588822-208.479042-215.632734z" fill="#2E294E" p-id="74461"></path><path d="M664.782435 942.243513c-27.081836 0-49.56487-22.483034-49.56487-49.56487v-45.988024h99.12974v45.988024c0 27.081836-22.483034 49.56487-49.56487 49.56487z" fill="#7A3793" p-id="74462"></path><path d="M686.754491 399.073852c-0.510978-7.153693-0.510978-8.175649-10.219561-11.241517-7.664671-2.55489-48.031936-6.131737-78.690619-4.087824-2.043912 0-4.087824 0-6.131736 0.510978-27.592814 2.043912-61.317365 13.285429-86.35529 13.796407-10.730539 0-54.674651-11.241517-85.333333-13.796407-2.043912 0-4.087824-0.510978-6.131736-0.510978-30.658683-1.532934-71.536926 2.043912-78.690619 4.087824-9.708583 3.065868-9.708583 3.576846-10.219561 11.241517-0.510978 7.153693 0.510978 13.285429 6.131736 15.329342 7.664671 2.55489 7.664671 12.263473 12.774452 39.856287 4.598802 25.037924 15.840319 45.477046 63.872255 49.053892 2.043912 0 4.087824 0 6.131737 0.510978 42.411178 0.510978 57.229541-27.592814 61.828343-36.790419 9.197605-17.373253 6.131737-41.389222 30.147704-41.389221s21.461078 23.50499 30.658683 40.878243c5.10978 9.197605 18.906188 37.812375 61.317365 37.301397 2.043912 0 4.087824 0 6.131737-0.510978 48.031936-3.576846 59.273453-23.50499 63.872255-49.053892 5.10978-27.592814 5.10978-37.301397 12.774451-39.856287 5.10978-1.532934 6.131737-7.664671 6.131737-15.329342zM440.974052 491.560878c-7.153693 3.576846-16.862275 5.10978-27.592814 5.109781-21.972056 0-45.988024-7.664671-54.674651-23.50499-12.263473-21.972056-15.329341-66.938124 0.510978-76.135729 6.642715-4.087824 30.147705-6.642715 54.163673-5.620758 25.037924 1.021956 51.097804 6.642715 60.295409 18.906187 15.329341 20.439122-9.197605 70.003992-32.702595 81.245509z m211.033932-18.395209c-8.686627 15.329341-32.702595 23.50499-54.674651 23.50499-10.219561 0-19.928144-1.532934-27.592814-5.109781-23.50499-11.241517-48.031936-60.806387-32.702595-81.245509 9.197605-12.263473 35.257485-17.884232 60.295409-18.906187 24.015968-1.021956 47.520958 1.532934 54.163673 5.620758 15.840319 9.197605 12.774451 54.163673 0.510978 76.135729z" fill="#011638" p-id="74463"></path><path d="M481.852295 1020.934132c9.708583 0.510978 19.417166 1.021956 29.125749 1.021956 9.708583 0 18.906188-0.510978 28.61477-1.021956v-292.790419H481.852295v292.790419z" fill="#7A3793" p-id="74464"></path><path d="M512.510978 995.38523m-7.153693 0a7.153693 7.153693 0 1 0 14.307386 0 7.153693 7.153693 0 1 0-14.307386 0Z" fill="#FFFFFF" p-id="74465"></path><path d="M512.510978 758.291417m-7.153693 0a7.153693 7.153693 0 1 0 14.307386 0 7.153693 7.153693 0 1 0-14.307386 0Z" fill="#FFFFFF" p-id="74466"></path><path d="M512.510978 876.838323m-7.153693 0a7.153693 7.153693 0 1 0 14.307386 0 7.153693 7.153693 0 1 0-14.307386 0Z" fill="#FFFFFF" p-id="74467"></path></svg>