<?xml version="1.0" standalone="no"?><!DOCTYPE svg PUBLIC "-//W3C//DTD SVG 1.1//EN" "http://www.w3.org/Graphics/SVG/1.1/DTD/svg11.dtd"><svg t="1602840647103" class="icon" viewBox="0 0 1024 1024" version="1.1" xmlns="http://www.w3.org/2000/svg" p-id="59502" xmlns:xlink="http://www.w3.org/1999/xlink" width="200" height="200"><defs><style type="text/css"></style></defs><path d="M514.048 18.432C240.2304 18.432 18.432 240.2304 18.432 514.048c0 182.4768 98.7136 342.016 245.5552 428.032 16.7936-112.4352 125.5424-199.0656 257.2288-199.0656 128.4096 0 235.1104 82.7392 255.7952 191.2832C916.6848 846.4384 1009.664 691.2 1009.664 514.048 1009.664 240.2304 787.8656 18.432 514.048 18.432z" fill="#08BF91" opacity=".2" p-id="59503"></path><path d="M521.216 743.0144c-131.6864 0-240.2304 86.6304-257.2288 199.0656 73.3184 43.008 158.72 67.584 250.0608 67.584 96.6656 0 186.7776-27.648 262.9632-75.5712-20.6848-108.544-127.3856-191.0784-255.7952-191.0784z" fill="#63677A" p-id="59504"></path><path d="M279.552 483.5328a56.7296 35.84 90 1 0 71.68 0 56.7296 35.84 90 1 0-71.68 0Z" fill="#FDF4F2" p-id="59505"></path><path d="M691.2 483.5328a56.7296 35.84 90 1 0 71.68 0 56.7296 35.84 90 1 0-71.68 0Z" fill="#FDF4F2" p-id="59506"></path><path d="M297.5744 417.9968a253.5424 226.7136 90 1 0 453.4272 0 253.5424 226.7136 90 1 0-453.4272 0Z" fill="#FDF4F2" p-id="59507"></path><path d="M631.6032 200.2944c0-50.176-53.0432-91.136-120.6272-95.0272l-0.2048-0.4096s-111.8208-11.8784-183.296 77.6192-53.6576 184.9344-23.7568 238.592c0 0 23.7568-59.5968 95.4368-65.536s184.9344-32.768 214.6304-105.8816l-0.4096-0.6144c11.4688-14.5408 18.2272-31.1296 18.2272-48.7424z" fill="#63677A" p-id="59508"></path><path d="M741.376 425.984s-24.576-100.352-135.168-169.1648c0 0-15.5648-62.6688 49.152-74.5472 67.584-12.288 163.84 124.928 86.016 243.712z" fill="#63677A" p-id="59509"></path><path d="M470.4256 641.6384h95.4368v125.3376h-95.4368z" fill="#FDF4F2" p-id="59510"></path><path d="M623.0016 761.2416c-31.3344-11.8784-65.536-18.2272-101.7856-18.2272-37.2736 0-72.9088 6.9632-104.8576 19.6608 26.0096 42.1888 72.0896 133.12 72.0896 248.832h71.4752c0-0.2048-20.48-139.4688 63.0784-250.2656z" fill="#FFFFFF" p-id="59511"></path><path d="M494.422016 808.484864l29.831168-29.831168 29.831168 29.831168-29.831168 29.831168z" fill="#72B5F8" p-id="59512"></path><path d="M512.2048 820.4288V862.208h-5.9392l-17.8176 89.4976 19.2512 62.6688h28.4672l20.8896-61.2352-14.9504-90.9312h-5.9392v-41.7792z" fill="#72B5F8" p-id="59513"></path><path d="M446.2592 514.8672h-45.6704c-29.696 0-53.6576-24.1664-53.6576-53.6576 0-24.576 20.0704-44.6464 44.6464-44.6464h73.5232c21.9136 0 39.7312 17.8176 39.7312 39.7312 0 32.1536-26.4192 58.5728-58.5728 58.5728z m-54.6816-89.4976c-19.6608 0-35.84 15.9744-35.84 35.84 0 24.576 20.0704 44.6464 44.6464 44.6464h45.6704c27.4432 0 49.7664-22.3232 49.7664-49.7664 0-16.9984-13.7216-30.72-30.72-30.72h-73.5232zM642.048 514.8672h-45.6704c-32.3584 0-58.5728-26.2144-58.5728-58.5728 0-21.9136 17.8176-39.7312 39.7312-39.7312h73.5232c24.576 0 44.6464 20.0704 44.6464 44.6464 0 29.4912-24.1664 53.6576-53.6576 53.6576z m-64.7168-89.4976c-16.9984 0-30.72 13.7216-30.72 30.72 0 27.4432 22.3232 49.7664 49.7664 49.7664h45.6704c24.576 0 44.6464-20.0704 44.6464-44.6464 0-19.6608-15.9744-35.84-35.84-35.84h-73.5232z" fill="#282321" p-id="59514"></path><path d="M541.0816 443.1872h-41.7792c-4.096 0-7.3728-3.2768-7.3728-7.3728s3.2768-7.3728 7.3728-7.3728h41.7792c4.096 0 7.3728 3.2768 7.3728 7.3728s-3.2768 7.3728-7.3728 7.3728zM378.0608 417.9968h-41.7792v23.7568h18.0224zM667.2384 420.864h41.7792v23.9616h-17.8176z" fill="#282321" p-id="59515"></path></svg>