<?xml version="1.0" standalone="no"?><!DOCTYPE svg PUBLIC "-//W3C//DTD SVG 1.1//EN" "http://www.w3.org/Graphics/SVG/1.1/DTD/svg11.dtd"><svg t="1604975772374" class="icon" viewBox="0 0 1024 1024" version="1.1" xmlns="http://www.w3.org/2000/svg" p-id="3475" xmlns:xlink="http://www.w3.org/1999/xlink" width="200" height="200"><defs><style type="text/css"></style></defs><path d="M819.2 399.36c-20.48 0-35.84 5.12-51.2 15.36-10.24-35.84-46.08-61.44-81.92-61.44-15.36 0-35.84 5.12-51.2 15.36-10.24-35.84-40.96-61.44-81.92-61.44-15.36 0-30.72 5.12-40.96 10.24v-92.16c0-51.2-35.84-92.16-87.04-92.16s-92.16 40.96-92.16 92.16v353.28l-56.32-56.32c-35.84-35.84-97.28-30.72-128 0s-51.2 92.16-5.12 133.12l256 256 15.36 15.36c46.08 35.84 102.4 61.44 209.92 61.44 256 0 281.6-138.24 281.6-312.32V491.52c0-51.2-40.96-92.16-87.04-92.16m35.84 276.48c0 143.36 0 261.12-230.4 261.12-97.28 0-158.72-20.48-199.68-66.56L184.32 629.76c-20.48-20.48-15.36-51.2 0-66.56s51.2-20.48 66.56 0c0 0 40.96 40.96 81.92 76.8l51.2 51.2V230.4c0-25.6 20.48-40.96 46.08-40.96s40.96 20.48 40.96 40.96v296.96c0 10.24 10.24 25.6 20.48 25.6 15.36 0 25.6-10.24 25.6-25.6V404.48c0-25.6 15.36-40.96 40.96-40.96 0 0 40.96 0 40.96 40.96v163.84c0 10.24 10.24 25.6 20.48 25.6 15.36 0 25.6-10.24 25.6-25.6V450.56c0-25.6 15.36-40.96 40.96-40.96 0 0 40.96 5.12 40.96 40.96v143.36c0 10.24 10.24 25.6 20.48 25.6 15.36 0 25.6-10.24 25.6-25.6v-102.4c0-25.6 20.48-40.96 40.96-40.96 0 0 40.96 0 40.96 40.96v184.32M296.96 358.4v-76.8c-10.24-15.36-15.36-35.84-15.36-56.32 0-76.8 61.44-138.24 138.24-138.24 76.8 0 138.24 61.44 138.24 138.24 0 10.24 0 20.48-5.12 30.72 15.36 0 30.72 10.24 46.08 20.48 5.12-15.36 5.12-30.72 5.12-51.2 0-102.4-81.92-184.32-184.32-184.32s-184.32 81.92-184.32 184.32c0 51.2 20.48 97.28 61.44 133.12" p-id="3476" fill="#ffffff"></path></svg>